<?xml version="1.0" encoding="UTF-8" standalone="no"?>
<!-- Generator: Adobe Illustrator 19.0.0, SVG Export Plug-In . SVG Version: 6.00 Build 0)  -->

<svg
   version="1.1"
   id="Layer_1"
   x="0px"
   y="0px"
   viewBox="0 0 489 489"
   style="enable-background:new 0 0 489 489;"
   xml:space="preserve"
   sodipodi:docname="canceled.svg"
   inkscape:version="1.2.1 (9c6d41e410, 2022-07-14)"
   xmlns:inkscape="http://www.inkscape.org/namespaces/inkscape"
   xmlns:sodipodi="http://sodipodi.sourceforge.net/DTD/sodipodi-0.dtd"
   xmlns="http://www.w3.org/2000/svg"
   xmlns:svg="http://www.w3.org/2000/svg"><defs
   id="defs43" /><sodipodi:namedview
   id="namedview41"
   pagecolor="#ffffff"
   bordercolor="#000000"
   borderopacity="0.25"
   inkscape:showpageshadow="2"
   inkscape:pageopacity="0.0"
   inkscape:pagecheckerboard="0"
   inkscape:deskcolor="#d1d1d1"
   showgrid="false"
   inkscape:zoom="1.7116564"
   inkscape:cx="244.5"
   inkscape:cy="244.79211"
   inkscape:window-width="1920"
   inkscape:window-height="1017"
   inkscape:window-x="-8"
   inkscape:window-y="-8"
   inkscape:window-maximized="1"
   inkscape:current-layer="Layer_1" />
<g
   id="g8"
   style="fill:#c83737">
	<g
   id="g6"
   style="fill:#c83737">
		<path
   d="M244.5,0C109.3,0,0,109.3,0,244.5S109.3,489,244.5,489S489,379.7,489,244.5S379.7,0,244.5,0z M244.5,448.4    c-112.4,0-203.9-91.5-203.9-203.9S132.1,40.6,244.5,40.6s203.9,91.5,203.9,203.9S356.9,448.4,244.5,448.4z"
   id="path2"
   style="fill:#c83737" />
		<path
   d="M354.8,134.2c-8.3-8.3-20.8-8.3-29.1,0l-81.2,81.2l-81.1-81.1c-8.3-8.3-20.8-8.3-29.1,0s-8.3,20.8,0,29.1l81.1,81.1    l-81.1,81.1c-8.3,8.3-8.6,21.1,0,29.1c6.5,6,18.8,10.4,29.1,0l81.1-81.1l81.1,81.1c12.4,11.7,25,4.2,29.1,0    c8.3-8.3,8.3-20.8,0-29.1l-81.1-81.1l81.1-81.1C363.1,155,363.1,142.5,354.8,134.2z"
   id="path4"
   style="fill:#c83737" />
	</g>
</g>
<g
   id="g10">
</g>
<g
   id="g12">
</g>
<g
   id="g14">
</g>
<g
   id="g16">
</g>
<g
   id="g18">
</g>
<g
   id="g20">
</g>
<g
   id="g22">
</g>
<g
   id="g24">
</g>
<g
   id="g26">
</g>
<g
   id="g28">
</g>
<g
   id="g30">
</g>
<g
   id="g32">
</g>
<g
   id="g34">
</g>
<g
   id="g36">
</g>
<g
   id="g38">
</g>
</svg>
