<svg width="18" height="18" xmlns="http://www.w3.org/2000/svg" class="hide d-none">
    {literal}
    <defs><style>.a{fill:none;stroke:currentColor;stroke-linecap:round;stroke-linejoin:round;stroke-width:1.5px;}</style></defs>
    {/literal}
    <path id="add-to-cart-listing" d="M18 4.92a.13.13 0 000-.06 1 1 0 00-1-.88H4.68L4.14.75A1.09 1.09 0 003-.02H1a1 1 0 000 2h1.14l1.72 10.27a1.07 1.07 0 001.14.73h11.14a1 1 0 00.86-1v-.07l1-6.63a.45.45 0 000-.16.7.7 0 000-.14.24.24 0 000-.06zm-2.88 6.06H5.86l-.86-5h10.85zm-9.12 3a2 2 0 102 2 2 2 0 00-2-2zm8 0a2 2 0 102 2 2 2 0 00-2-2z" />
    <g>
        <g id="auction_bids">
            <path id="svg_1" fill-rule="evenodd" d="m9,14l-0.43,0a5.62,5.62 0 0 0 -3.57,-1a5.63,5.63 0 0 0 -3.6,1l-0.4,0a1,1 0 0 0 0,2l8,0a1,1 0 0 0 0,-2z"/>
            <path id="svg_2" fill-rule="evenodd" d="m17.5,10.53l-7.62,-4.4l1,-1.74a1,1 0 0 0 1,-1.74l-4.34,-2.52a1,1 0 0 0 -1,1.74l-1,1.74a1,1 0 0 0 -1,1.74l0,0l-1,1.74a1,1 0 0 0 -1,1.74l4.34,2.51a1,1 0 0 0 1,-1.74l1,-1.74l7.62,4.4a1,1 0 0 0 1,-1.74l0,0.01z"/>
        </g>
    </g>
    <path id="renew_auction" d="m2,3.36l0,-1.36a1,1 0 0 0 -2,0l0,4a1,1 0 0 0 1,1l4,0a1,1 0 0 0 0,-2l-1.73,0a7,7 0 1 1 -0.14,7.81a1,1 0 1 0 -1.68,1.09a9,9 0 1 0 0.55,-10.54z"/>
    <path id="close_icon" d="M.293 1.707A1 1 0 0 1 1.707.293L6 4.586 10.293.293a1 1 0 0 1 1.414 1.414L7.414 6l4.293 4.293a1 1 0 0 1-1.414 1.414L6 7.414l-4.293 4.293a1 1 0 0 1-1.414-1.414L4.586 6 .293 1.707z" />
    <path id="download_product" class="a" d="M12.001 3.75v12M7.501 11.25l4.5 4.5 4.5-4.5M23.251 15.75v1.5a3 3 0 0 1-3 3h-16.5a3 3 0 0 1-3-3v-1.5"/>
</svg>
