<svg xmlns="http://www.w3.org/2000/svg" xmlns:xlink="http://www.w3.org/1999/xlink" class="hide">
    <path id="dropdown-arrow-down" d="M4 2.577L1.716.293a1.01 1.01 0 0 0-1.423 0 1.01 1.01 0 0 0 0 1.423l2.991 2.99C3.481 4.903 3.741 5 4 5c.26.001.52-.096.716-.293l2.991-2.99a1.01 1.01 0 0 0 0-1.423 1.01 1.01 0 0 0-1.423 0L4 2.577z" />
    <path id="envelope-small" d="M12 1L6 3.988 0 1a1 1 0 0 1 1-1h10a1 1 0 0 1 1 1zm0 1.894V9a1 1 0 0 1-1 1H1a1 1 0 0 1-1-1V3l6 3 6-3.106z" />
    <path id="handset" d="M3.327 2.868c-.27-.447-.792-1.305-1.097-1.8-.566.256-1.265 1.17-1.229 1.837.125 2.204 2.03 5.008 4.62 6.778 2.582 1.764 4.545 1.724 5.292.096-.511-.304-1.343-.794-1.76-1.037-.05.058-.11.128-.176.21l-.028.034-.026.033-.19.242H8.73a6.186 6.186 0 0 1-.297.368c-.476.48-.936.64-1.56.412-1.67-.627-4.88-3.775-4.946-5.331l-.001-.05c.002-.423.197-.724.525-1.045.04-.038.008-.012.331-.28l.246-.206.044-.037.042-.037c.088-.076.157-.137.212-.187z" fill-rule="nonzero" stroke="#000" stroke-width="2" />
    <path id="mobile-menu" d="M1 0h18a1 1 0 1 1 0 2H1a1 1 0 1 1 0-2zm0 6h18a1 1 0 1 1 0 2H1a1 1 0 1 1 0-2zm0 6h18a1 1 0 1 1 0 2H1a1 1 0 1 1 0-2z" fill="#FFE500" fill-rule="evenodd"/>
    <path id="close-icon" d="M.293 1.707A1 1 0 0 1 1.707.293L6 4.586 10.293.293a1 1 0 0 1 1.414 1.414L7.414 6l4.293 4.293a1 1 0 0 1-1.414 1.414L6 7.414l-4.293 4.293a1 1 0 0 1-1.414-1.414L4.586 6 .293 1.707z" />
    <g id="photo-cam-icon"><path d="M51.195 42.884C50.535 43.624 49.46 44 48 44H6c-1.46 0-2.535-.376-3.196-1.116C1.817 41.778 2 40.011 2 40v-2l-.003-23.078c-.002-.017-.113-1.719.934-2.844C3.596 11.363 4.63 11 6.001 11h7l.1-.006c.105-.01 2.585-.288 3.781-2.523.927-1.733 2.932-4.888 2.93-4.888C19.86 3.518 20.99 2 23 2h8c2.01 0 3.14 1.518 3.188 1.583-.002 0 2.003 3.155 2.93 4.888 1.196 2.235 3.675 2.513 3.78 2.523L41 11h7c1.371 0 2.403.363 3.07 1.078 1.045 1.125.934 2.827.933 2.844L52 38v2c.001.011.183 1.778-.805 2.884m1.355-32.149C51.491 9.585 49.96 9 48 9h-6.936c-.242-.037-1.549-.288-2.182-1.472-.966-1.804-2.955-4.933-3.039-5.065C35.746 2.323 34.065 0 31 0h-8c-3.066 0-4.746 2.323-4.844 2.463-.084.132-2.073 3.261-3.038 5.065-.633 1.184-1.94 1.435-2.183 1.472H6c-1.96 0-3.492.584-4.55 1.735C-.19 12.516.026 14.702 0 15v24.95c.041.62-.154 2.605 1.295 4.246C2.351 45.393 3.935 46 6 46h42c2.065 0 3.648-.607 4.704-1.804 1.45-1.64 1.254-3.626 1.296-4.247V15c-.028-.298.19-2.484-1.45-4.265"/><path d="M27 16c-5.514 0-10 4.486-10 10s4.486 10 10 10 10-4.486 10-10-4.486-10-10-10m0 22c-6.617 0-12-5.383-12-12s5.383-12 12-12 12 5.383 12 12-5.383 12-12 12"/></g>
</svg>
