<svg xmlns="http://www.w3.org/2000/svg" xmlns:xlink="http://www.w3.org/1999/xlink" class="hide">
    <path id="core-icon-plus" d="M18,0 C18.5522847,-1.01453063e-16 19,0.44771525 19,1 L19,12.999 L31,13 C31.5522847,13 32,13.4477153 32,14 L32,18 C32,18.5522847 31.5522847,19 31,19 L19,19 L19,31 C19,31.5522847 18.5522847,32 18,32 L14,32 C13.4477153,32 13,31.5522847 13,31 L13,19 L1,19 C0.44771525,19 0,18.5522847 0,18 L0,14 C0,13.4477153 0.44771525,13 1,13 L13,13 L13,1 C13,0.44771525 13.4477153,1.01453063e-16 14,0 L18,0 Z"></path>
    <path id="core-icon-minus" d="M32,14 L32,18 C32,18.5522847 31.5522847,19 31,19 L1,19 C0.44771525,19 0,18.5522847 0,18 L0,14 C0,13.4477153 0.44771525,13 1,13 L31,13 C31.5522847,13 32,13.4477153 32,14 Z"></path>
    <path id="core-icon-arrow-left" d="M15 0c.552 0 .797.335.546.749L6.456 15.72c-.061.102-.149.2-.254.288.105.089.193.186.255.287l9.089 14.909c.25.412.006.745-.546.745h-4c-.552 0-1.21-.333-1.468-.745L.177 16.296a.814.814 0 0 1-.036-.064.358.358 0 0 1-.064-.222.36.36 0 0 1 .06-.22.853.853 0 0 1 .04-.069L9.532.749C9.791.335 10.448 0 11 0h4Z" fill-rule="evenodd" />
</svg>
