<svg xmlns="http://www.w3.org/2000/svg" xmlns:xlink="http://www.w3.org/1999/xlink" class="hide d-none">
    {literal}
    <defs><style>.a{fill:none;stroke:currentColor;stroke-linecap:round;stroke-linejoin:round;stroke-width:1.5px;}</style></defs>
    {/literal}
    <path id="download" class="a" d="M12.001 3.75v12M7.501 11.25l4.5 4.5 4.5-4.5M23.251 15.75v1.5a3 3 0 0 1-3 3h-16.5a3 3 0 0 1-3-3v-1.5"/>
    <g>
        <g id="upload">
            <path class="a" d="M12.002 23.251v-15M16.502 12.751l-4.5-4.5-4.5 4.5"/>
            <path class="a" d="M8.252 19.5H6a3 3 0 0 1-3-3V3.751a3 3 0 0 1 3-3h12a3 3 0 0 1 3 3V16.5a3 3 0 0 1-3 3h-2.25"/>
        </g>
    </g>
    <path id="remove" class="a" d="m4.5 19.5 15-15M4.5 4.5l15 15"/>
</svg>
