<svg xmlns="http://www.w3.org/2000/svg" xmlns:xlink="http://www.w3.org/1999/xlink" preserveAspectRatio="xMidYMid" class="hide">
    <path id="dropdown-arrow-down" d="M4 2.577L1.716.293a1.01 1.01 0 0 0-1.423 0 1.01 1.01 0 0 0 0 1.423l2.991 2.99C3.481 4.903 3.741 5 4 5c.26.001.52-.096.716-.293l2.991-2.99a1.01 1.01 0 0 0 0-1.423 1.01 1.01 0 0 0-1.423 0L4 2.577z" />
    <path id="envelope-small" d="M12 1L6 3.988 0 1a1 1 0 0 1 1-1h10a1 1 0 0 1 1 1zm0 1.894V9a1 1 0 0 1-1 1H1a1 1 0 0 1-1-1V3l6 3 6-3.106z" />
    <path id="handset" d="M3.327 2.868c-.27-.447-.792-1.305-1.097-1.8-.566.256-1.265 1.17-1.229 1.837.125 2.204 2.03 5.008 4.62 6.778 2.582 1.764 4.545 1.724 5.292.096-.511-.304-1.343-.794-1.76-1.037-.05.058-.11.128-.176.21l-.028.034-.026.033-.19.242H8.73a6.186 6.186 0 0 1-.297.368c-.476.48-.936.64-1.56.412-1.67-.627-4.88-3.775-4.946-5.331l-.001-.05c.002-.423.197-.724.525-1.045.04-.038.008-.012.331-.28l.246-.206.044-.037.042-.037c.088-.076.157-.137.212-.187z" fill-rule="nonzero" stroke="#000" stroke-width="2" />
    <path id="mobile-menu" d="M1 0h18a1 1 0 1 1 0 2H1a1 1 0 1 1 0-2zm0 6h18a1 1 0 1 1 0 2H1a1 1 0 1 1 0-2zm0 6h18a1 1 0 1 1 0 2H1a1 1 0 1 1 0-2z" fill="#157DD2" fill-rule="evenodd" />
    <path id="close-icon" d="M.293 1.707A1 1 0 0 1 1.707.293L6 4.586 10.293.293a1 1 0 0 1 1.414 1.414L7.414 6l4.293 4.293a1 1 0 0 1-1.414 1.414L6 7.414l-4.293 4.293a1 1 0 0 1-1.414-1.414L4.586 6 .293 1.707z" />
</svg>
