<?xml version="1.0" encoding="utf-8"?>
<svg width="186px" height="52px" viewBox="0 0 186 52" version="1.1" xmlns:xlink="http://www.w3.org/1999/xlink" xmlns="http://www.w3.org/2000/svg">
  <g id="Classifieds" fill="#177EEC">
    <path d="M112.705 22.0114L112.705 19.4545L108.307 19.4545L108.307 17.4602Q108.307 16.0028 108.965 15.2486Q109.624 14.4943 111.119 14.4943Q111.771 14.4943 112.174 14.6094Q112.577 14.7244 112.807 14.8011L113.676 12.1932Q113.331 12.0398 112.628 11.8608Q111.925 11.6818 110.813 11.6818Q109.406 11.6818 108.141 12.2443Q106.875 12.8068 106.082 13.9318Q105.29 15.0568 105.29 16.7443L105.29 19.4545L102.119 19.4545L102.119 22.0114L105.29 22.0114L105.29 39.0909L108.307 39.0909L108.307 22.0114L112.705 22.0114ZM96.9546 16.1818Q96.0724 16.1818 95.4396 15.581Q94.8068 14.9801 94.8068 14.1364Q94.8068 13.2926 95.4396 12.6918Q96.0724 12.0909 96.9546 12.0909Q97.8367 12.0909 98.4695 12.6918Q99.1023 13.2926 99.1023 14.1364Q99.1023 14.9801 98.4695 15.581Q97.8367 16.1818 96.9546 16.1818ZM118.483 16.1818Q117.601 16.1818 116.968 15.581Q116.335 14.9801 116.335 14.1364Q116.335 13.2926 116.968 12.6918Q117.601 12.0909 118.483 12.0909Q119.365 12.0909 119.998 12.6918Q120.631 13.2926 120.631 14.1364Q120.631 14.9801 119.998 15.581Q119.365 16.1818 118.483 16.1818ZM24.2386 21.0909L21.0682 21.0909Q20.6847 19.2756 19.598 18.0355Q18.5114 16.7955 16.9773 16.1562Q15.4432 15.517 13.7045 15.517Q11.3267 15.517 9.4027 16.7187Q7.47869 17.9205 6.3473 20.2599Q5.21591 22.5994 5.21591 26Q5.21591 29.4006 6.3473 31.7401Q7.47869 34.0795 9.4027 35.2813Q11.3267 36.483 13.7045 36.483Q15.4432 36.483 16.9773 35.8438Q18.5114 35.2045 19.598 33.9645Q20.6847 32.7244 21.0682 30.9091L24.2386 30.9091Q23.7528 33.5938 22.2571 35.505Q20.7614 37.4162 18.5497 38.4325Q16.3381 39.4489 13.7045 39.4489Q10.3551 39.4489 7.74716 37.8125Q5.1392 36.1761 3.64347 33.1591Q2.14773 30.142 2.14773 26Q2.14773 21.858 3.64347 18.8409Q5.1392 15.8239 7.74716 14.1875Q10.3551 12.5511 13.7045 12.5511Q16.3381 12.5511 18.5497 13.5675Q20.7614 14.5838 22.2571 16.495Q23.7528 18.4062 24.2386 21.0909ZM31.9602 39.0909L28.9432 39.0909L28.9432 12.9091L31.9602 12.9091L31.9602 39.0909ZM153.869 39.5Q151.415 39.5 149.536 38.2536Q147.656 37.0071 146.595 34.7251Q145.534 32.4432 145.534 29.3239Q145.534 26.2301 146.595 23.9545Q147.656 21.679 149.548 20.4389Q151.44 19.1989 153.92 19.1989Q155.838 19.1989 156.957 19.8317Q158.075 20.4645 158.67 21.2635Q159.264 22.0625 159.597 22.5739L159.852 22.5739L159.852 12.9091L162.869 12.9091L162.869 39.0909L159.955 39.0909L159.955 36.0739L159.597 36.0739Q159.264 36.6108 158.651 37.4226Q158.037 38.2344 156.899 38.8672Q155.761 39.5 153.869 39.5ZM39.8736 38.8416Q41.3949 39.5511 43.2614 39.5511Q44.9744 39.5511 46.1634 39.0398Q47.3523 38.5284 48.0682 37.7997Q48.7841 37.071 49.0909 36.4318L49.2443 36.4318L49.2443 39.0909L52.2614 39.0909L52.2614 26.1534Q52.2614 23.8139 51.4943 22.4205Q50.7273 21.027 49.5703 20.3366Q48.4134 19.6463 47.1797 19.4226Q45.946 19.1989 45 19.1989Q43.517 19.1989 41.9893 19.6016Q40.4616 20.0043 39.1768 21.0078Q37.892 22.0114 37.125 23.8011L39.9886 24.8239Q40.4872 23.75 41.7145 22.804Q42.9418 21.858 45.1023 21.858Q47.1861 21.858 48.2152 22.9062Q49.2443 23.9545 49.2443 25.8466L49.2443 25.9489Q49.2443 26.6776 48.7266 26.9716Q48.2088 27.2656 47.0902 27.3871Q45.9716 27.5085 44.1818 27.7386Q42.8139 27.9176 41.4652 28.218Q40.1165 28.5185 39.0043 29.1193Q37.892 29.7202 37.2273 30.7749Q36.5625 31.8295 36.5625 33.517Q36.5625 35.4347 37.4574 36.7834Q38.3523 38.1321 39.8736 38.8416ZM71.6932 23.8523L68.983 24.6193Q68.5866 23.5966 67.6534 22.7017Q66.7202 21.8068 64.7386 21.8068Q62.9361 21.8068 61.7408 22.6314Q60.5455 23.456 60.5455 24.7216Q60.5455 25.8466 61.3636 26.4986Q62.1818 27.1506 63.9205 27.5852L66.8352 28.3011Q72.0511 29.5795 72.0511 33.6193Q72.0511 35.3068 71.0859 36.6364Q70.1207 37.9659 68.3949 38.733Q66.669 39.5 64.3807 39.5Q61.3764 39.5 59.4077 38.196Q57.4389 36.892 56.9148 34.3864L59.7784 33.6705Q60.5838 36.8409 64.3295 36.8409Q66.4389 36.8409 67.6854 35.9396Q68.9318 35.0384 68.9318 33.7727Q68.9318 31.6889 66.017 31.0114L62.7443 30.2443Q60.0469 29.6051 58.7876 28.2564Q57.5284 26.9077 57.5284 24.875Q57.5284 23.2131 58.468 21.9347Q59.4077 20.6562 61.0376 19.9276Q62.6676 19.1989 64.7386 19.1989Q67.6534 19.1989 69.3217 20.4773Q70.9901 21.7557 71.6932 23.8523ZM87.8011 24.6193L90.5114 23.8523Q89.8082 21.7557 88.1399 20.4773Q86.4716 19.1989 83.5568 19.1989Q81.4858 19.1989 79.8558 19.9276Q78.2259 20.6562 77.2862 21.9347Q76.3466 23.2131 76.3466 24.875Q76.3466 26.9077 77.6058 28.2564Q78.8651 29.6051 81.5625 30.2443L84.8352 31.0114Q87.75 31.6889 87.75 33.7727Q87.75 35.0384 86.5036 35.9396Q85.2571 36.8409 83.1477 36.8409Q79.402 36.8409 78.5966 33.6705L75.733 34.3864Q76.2571 36.892 78.2259 38.196Q80.1946 39.5 83.1989 39.5Q85.4872 39.5 87.2131 38.733Q88.9389 37.9659 89.9041 36.6364Q90.8693 35.3068 90.8693 33.6193Q90.8693 29.5795 85.6534 28.3011L82.7386 27.5852Q81 27.1506 80.1818 26.4986Q79.3636 25.8466 79.3636 24.7216Q79.3636 23.456 80.559 22.6314Q81.7543 21.8068 83.5568 21.8068Q85.5384 21.8068 86.4716 22.7017Q87.4048 23.5966 87.8011 24.6193ZM128.832 38.2408Q130.884 39.5 133.722 39.5Q136.713 39.5 138.784 38.1321Q140.855 36.7642 141.545 34.5398L138.631 33.7216Q138.055 35.2557 136.777 36.0227Q135.499 36.7898 133.722 36.7898Q131.063 36.7898 129.381 35.1151Q127.7 33.4403 127.598 30.2955L141.852 30.2955L141.852 29.017Q141.852 26.2685 141.124 24.3892Q140.395 22.5099 139.168 21.3658Q137.94 20.2216 136.445 19.7102Q134.949 19.1989 133.415 19.1989Q130.756 19.1989 128.768 20.4964Q126.78 21.794 125.674 24.1016Q124.568 26.4091 124.568 29.4261Q124.568 32.4432 125.674 34.7124Q126.78 36.9815 128.832 38.2408ZM180 24.6193L182.71 23.8523Q182.007 21.7557 180.339 20.4773Q178.67 19.1989 175.756 19.1989Q173.685 19.1989 172.055 19.9276Q170.425 20.6562 169.485 21.9347Q168.545 23.2131 168.545 24.875Q168.545 26.9077 169.805 28.2564Q171.064 29.6051 173.761 30.2443L177.034 31.0114Q179.949 31.6889 179.949 33.7727Q179.949 35.0384 178.702 35.9396Q177.456 36.8409 175.347 36.8409Q171.601 36.8409 170.795 33.6705L167.932 34.3864Q168.456 36.892 170.425 38.196Q172.393 39.5 175.398 39.5Q177.686 39.5 179.412 38.733Q181.138 37.9659 182.103 36.6364Q183.068 35.3068 183.068 33.6193Q183.068 29.5795 177.852 28.3011L174.937 27.5852Q173.199 27.1506 172.381 26.4986Q171.562 25.8466 171.562 24.7216Q171.562 23.456 172.758 22.6314Q173.953 21.8068 175.756 21.8068Q177.737 21.8068 178.67 22.7017Q179.604 23.5966 180 24.6193ZM95.4205 39.0909L95.4205 19.4545L98.4375 19.4545L98.4375 39.0909L95.4205 39.0909ZM116.949 39.0909L116.949 19.4545L119.966 19.4545L119.966 39.0909L116.949 39.0909ZM138.784 27.6875L127.598 27.6875Q127.7 26.1662 128.429 24.843Q129.158 23.5199 130.423 22.7145Q131.689 21.9091 133.415 21.9091Q135.869 21.9091 137.327 23.5518Q138.784 25.1946 138.784 27.6875ZM154.278 36.7898Q157.001 36.7898 158.452 34.6996Q159.903 32.6094 159.903 29.2727Q159.903 25.9744 158.472 23.9418Q157.04 21.9091 154.278 21.9091Q152.361 21.9091 151.089 22.8871Q149.817 23.8651 149.184 25.5334Q148.551 27.2017 148.551 29.2727Q148.551 31.3693 149.197 33.076Q149.842 34.7827 151.114 35.7862Q152.386 36.7898 154.278 36.7898ZM46.745 36.1378Q45.5114 36.8409 43.7216 36.8409Q41.919 36.8409 40.7493 36.0419Q39.5795 35.2429 39.5795 33.6705Q39.5795 32.5199 40.1996 31.8487Q40.8196 31.1776 41.8359 30.8388Q42.8523 30.5 44.0284 30.3466Q44.5142 30.2827 45.3004 30.1868Q46.0866 30.0909 46.924 29.9567Q47.7614 29.8224 48.407 29.6371Q49.0526 29.4517 49.2443 29.2216L49.2443 31.983Q49.2443 33.2102 48.6115 34.3224Q47.9787 35.4347 46.745 36.1378Z" />
  </g>
</svg>
