<svg width="28px" height="28px" xmlns="http://www.w3.org/2000/svg" viewBox="0 0 28 28">
  <g fill="none" fill-rule="evenodd">
    <path d="M14 0c7.732 0 14 6.268 14 14s-6.268 14-14 14S0 21.732 0 14 6.268 0 14 0Z" fill="#7F4DA0"/>
    <path d="M18.963 8.708c.617.59.96 1.038 1.322 1.733.505.969.793 2.12.842 3.389.018.432.005.529-.098.652-.197.24-.63.2-.778-.069-.046-.09-.06-.166-.075-.512a8.565 8.565 0 0 0-.142-1.285c-.306-1.61-1.114-2.894-2.405-3.816-1.075-.771-2.187-1.147-3.644-1.228-.492-.028-.577-.045-.689-.127-.208-.156-.218-.521-.018-.692.121-.106.207-.121.63-.109.22.007.544.033.72.052.833.09 1.645.32 2.402.68.778.363 1.275.707 1.933 1.332ZM9.458 6.86c.47.31 1.782 1.976 2.21 2.808.246.475.328.827.25 1.088-.079.28-.21.428-.797.898-.236.19-.457.384-.49.436-.09.128-.162.379-.162.556.003.411.27 1.157.622 1.73.273.446.76 1.017 1.244 1.455.568.516 1.068.868 1.634 1.147.726.36 1.17.45 1.494.3a1.15 1.15 0 0 0 .196-.109c.025-.022.216-.253.424-.509.401-.502.493-.583.768-.677.35-.118.707-.086 1.066.096.273.14.867.507 1.252.773.505.352 1.587 1.228 1.732 1.403.258.315.303.719.13 1.164-.184.47-.898 1.351-1.396 1.728-.451.34-.771.47-1.193.49-.347.017-.49-.013-.934-.195-3.48-1.425-6.259-3.551-8.464-6.473-1.153-1.526-2.03-3.108-2.63-4.75-.35-.957-.367-1.373-.08-1.863.124-.206.652-.719 1.037-1.004.639-.472.934-.647 1.17-.696.16-.035.44-.008.62.056.086.03.219.099.297.148Z" fill="#FFF"/>
    <path d="M19.111 12.548c.031.268.031.758-.002.839a.522.522 0 0 1-.215.223.55.55 0 0 1-.397-.014c-.182-.087-.236-.227-.236-.606a3.48 3.48 0 0 0-.433-1.677c-.314-.547-.769-1-1.318-1.309-.475-.27-1.177-.47-1.817-.52-.232-.018-.36-.064-.447-.16a.396.396 0 0 1-.036-.51c.123-.182.313-.212.877-.13 1.435.2 2.545.836 3.273 1.868.409.581.664 1.264.751 1.996Z" fill="#FFF"/>
    <path d="M16.352 11.279c.418.382.646.846.747 1.512.068.435.04.606-.118.747-.148.132-.423.137-.588.013-.121-.088-.159-.181-.186-.432-.033-.335-.093-.57-.197-.786-.22-.462-.61-.7-1.27-.779-.31-.037-.402-.07-.503-.185a.447.447 0 0 1 .141-.683c.096-.047.136-.052.347-.04.13.008.325.03.427.051.496.103.876.286 1.2.582Z" fill="#FFF"/>
  </g>
</svg>
