<svg width="28px" height="28px" viewBox="0 0 1059.787 1060" xmlns="http://www.w3.org/2000/svg">
  <path d="M7948.43 3975.46C7948.43 1780.85 6168.88 0 3974.21 0 1778.98 0 0 1780.85 0 3975.46S1778.98 7950 3974.21 7950c2194.67 0 3974.22-1779.93 3974.22-3974.54" style="fill:#30a340;fill-opacity:1;fill-rule:nonzero;stroke:none" transform="matrix(.13333 0 0 -.13333 0 1060)"/>
  <path d="M4302.4 2058.34c-106.5-18.11-213.55-27.73-269.94-26.56-414.75 1.23-752.89 94.14-1063.86 282.3-39.78 24.15-74.5 30.21-120.95 18.1-209.04-57.88-419.56-109.77-628.91-165.25-44.05-13.28-48.25-3.64-37.06 36.2 55.46 199.04 107.67 396.9 164.99 593.58 15.94 55.48 10.26 97.72-21.43 147.21-430.13 691.3-412.03 1552.72 69.37 2192.2 500.11 665.97 1179.99 938.64 1993.47 764.93 801.7-168.95 1312.68-686.48 1500.59-1484.03 256.67-1090.67-483.56-2175.28-1586.27-2358.68Zm1971.73 2470.92C6015 5604.23 5090.26 6337.48 3972.41 6350.14c-147.2-2.41-301.32-14.45-453.66-46.45C1959.35 5987.91 1151.3 4259 1911.42 2863.06c19.58-37.38 21.13-67.58 10.25-106.19-101.06-367.98-201.2-735.96-301.95-1102.71-16.3-60.35-16.3-60.35 44.05-44.67 381.57 100.14 762.53 199.1 1143.79 300.41 31.63 8.46 56.4 4.88 85.31-9.64 491.09-250.92 1008.38-324.56 1550.07-219.61C5737.21 1931.64 6583 3247.96 6274.13 4529.26" style="fill:#fefefe;fill-opacity:1;fill-rule:evenodd;stroke:none" transform="matrix(.13333 0 0 -.13333 0 1060)"/>
  <path d="M4589.52 2860.64c-84.13-3.64-164.37 15.7-244.92 37.44-541.39 155.61-947.67 494.62-1274.08 941.05-123.36 167.72-237.63 341.42-275.63 550.15-45.58 250.98 26.51 463.3 213.25 637.07 59.42 54.29 240.35 78.39 312.75 43.42 26.87-13.28 44.05-37.43 55.22-62.76 68.45-162.89 136.03-323.32 202.99-486.21 12.67-31.39 7.23-61.53-6.92-92.91-34.41-74.81-89.63-135.1-145.72-194.21-42.5-43.49-44.35-83.27-12.97-135.16 191.25-318.51 455.76-550.16 801.75-688.9 51.58-20.5 90.5-13.28 124.84 30.15 57.64 71.16 118.55 142.38 173.15 215.96 37.38 51.89 80.25 59.11 133 35.02 114.35-51.89 228.62-106.18 342.96-160.49 25.65-10.87 50.97-24.15 76.3-36.19 115.82-57.95 114.65-59.12 104.7-186.99-19.34-249.75-206.63-372.86-428.65-434.38-48.85-13.23-100.75-14.47-152.02-12.06" style="fill:#fff;fill-opacity:1;fill-rule:evenodd;stroke:none" transform="matrix(.13333 0 0 -.13333 0 1060)"/>
</svg>
